<svg xmlns="http://www.w3.org/2000/svg" viewBox="0 0 57 34.93">
    <defs>
        <style>.cls-1{fill:none;stroke:#fff;stroke-linecap:round;stroke-linejoin:round;stroke-width:2px;}</style>
    </defs>
    <title>Ресурс 22</title>
    <g id="Слой_2" data-name="Слой 2">
        <g id="Слой_1-2" data-name="Слой 1">
            <path class="cls-1"
                  d="M44.8,23.62a5.16,5.16,0,1,1-5.15,5.16A5.15,5.15,0,0,1,44.8,23.62ZM43,28.78A1.79,1.79,0,1,0,44.8,27,1.79,1.79,0,0,0,43,28.78Zm-33.75,0a5.15,5.15,0,1,0,5.15-5.16A5.15,5.15,0,0,0,9.26,28.78Zm3.36,0A1.79,1.79,0,1,0,14.41,27,1.79,1.79,0,0,0,12.62,28.78Zm26.92.28h-16m26.39,0h6V19.31C56,12,55,7.94,45.76,7.94H37.57a1.28,1.28,0,0,0-1.28,1.29V29.06M5,22v4.35A2.7,2.7,0,0,0,7.69,29H9.26m26.88-5.26v-20A2.7,2.7,0,0,0,33.45,1H7.69A2.7,2.7,0,0,0,5,3.69V4.5M26.28,24.57H17.4M45.7,8V18.39a1.2,1.2,0,0,0,1.2,1.2h9m-32.82-4H3m18.09-5H1"/>
        </g>
    </g>
</svg>
