<svg width="37" height="46" viewBox="0 0 37 46" fill="none" xmlns="http://www.w3.org/2000/svg">
<path d="M16.9524 11L7 1H29L19.0476 11H16.9524Z" stroke="white" stroke-width="2" stroke-linejoin="round"/>
<path d="M8.5 38V44.5H28V38" stroke="white" stroke-width="2" stroke-linejoin="round"/>
<path d="M10.6317 10.0094L9.11781 8.69897C8.84107 9.04859 8.5986 9.40807 8.38677 9.77029C7.69012 10.9616 7.34603 12.144 7.17472 13.0228C7.0887 13.4641 7.04513 13.8346 7.023 14.0995C7.01193 14.2321 7.00618 14.3387 7.0032 14.4151C7.00171 14.4534 7.00091 14.4841 7.00048 14.5067L7.00008 14.5346L7.00002 14.5439L7 14.5474L7 14.5489C7 14.5495 7 14.5501 8 14.5501H7V25.0001C7 25.5524 7.44772 26.0001 8 26.0001C8.55228 26.0001 9 25.5524 9 25.0001V14.5529L9.00013 14.5444C9.00031 14.5347 9.00073 14.5174 9.00168 14.493C9.00359 14.4442 9.00761 14.3672 9.01606 14.266C9.033 14.0632 9.06755 13.7658 9.13778 13.4055C9.27897 12.6812 9.55988 11.7262 10.1132 10.7799C10.2631 10.5236 10.4347 10.2649 10.6317 10.0094Z" fill="white"/>
<path fill-rule="evenodd" clip-rule="evenodd" d="M25.5784 10.2964C25.6903 10.4576 25.7928 10.6192 25.8868 10.7799C26.4401 11.7262 26.721 12.6812 26.8622 13.4055C26.9324 13.7658 26.967 14.0632 26.9839 14.266C26.9924 14.3672 26.9964 14.4442 26.9983 14.493C26.9993 14.5174 26.9997 14.5347 26.9999 14.5444L27 14.5512V14.5528V25.0001C27 25.5524 27.4477 26.0001 28 26.0001C28.5523 26.0001 29 25.5524 29 25.0001V14.5501H28C29 14.5501 29 14.5495 29 14.5489L29 14.5439L28.9999 14.5346L28.9995 14.5067C28.9991 14.4841 28.9983 14.4534 28.9968 14.4151C28.9938 14.3387 28.9881 14.2321 28.977 14.0995C28.9549 13.8346 28.9113 13.4641 28.8253 13.0228C28.654 12.144 28.3099 10.9616 27.6132 9.77029C27.4581 9.50504 27.2866 9.24127 27.0972 8.98176L25.5784 10.2964ZM27 14.5528C27 14.5533 27 14.5533 27 14.5528V14.5528Z" fill="white"/>
<path d="M13 7V14H23V7" stroke="white" stroke-width="2" stroke-linecap="round" stroke-linejoin="round"/>
<path d="M36.0238 27.3843C36.0239 27.3843 36.0232 27.3858 36.0212 27.3888C36.0227 27.3858 36.0237 27.3843 36.0238 27.3843ZM35.1379 27.0505C35.5255 27.2239 35.7718 27.3796 35.9127 27.5C35.7718 27.6204 35.5255 27.7761 35.1379 27.9495C34.3056 28.3218 33.0388 28.6814 31.3956 28.9923C28.1257 29.6109 23.5659 30 18.5 30C13.4341 30 8.87433 29.6109 5.60442 28.9923C3.96123 28.6814 2.69438 28.3218 1.86213 27.9495C1.47446 27.7761 1.22818 27.6204 1.08726 27.5C1.22818 27.3796 1.47446 27.2239 1.86213 27.0505C2.69438 26.6782 3.96123 26.3186 5.60442 26.0077C8.87433 25.3891 13.4341 25 18.5 25C23.5659 25 28.1257 25.3891 31.3956 26.0077C33.0388 26.3186 34.3056 26.6782 35.1379 27.0505ZM0.976171 27.3843C0.976285 27.3843 0.977264 27.3858 0.978765 27.3888C0.976808 27.3858 0.976057 27.3843 0.976171 27.3843ZM0.976171 27.6157C0.976057 27.6157 0.976808 27.6142 0.978765 27.6112C0.977264 27.6142 0.976285 27.6157 0.976171 27.6157ZM36.0212 27.6112C36.0232 27.6142 36.0239 27.6157 36.0238 27.6157C36.0237 27.6157 36.0227 27.6142 36.0212 27.6112Z" stroke="white" stroke-width="2"/>
<path d="M1 28V29.113C1 32.7909 2.94984 36.1299 6.54494 36.9058C9.29162 37.4986 13.1855 38 18.5 38C23.8145 38 27.7084 37.4986 30.4551 36.9058C34.0502 36.1299 36 32.7909 36 29.113V28" stroke="white" stroke-width="2" stroke-linejoin="round"/>
<circle cx="18" cy="19" r="2" fill="white"/>
</svg>
