<svg width="46" height="46" viewBox="0 0 46 46" fill="none" xmlns="http://www.w3.org/2000/svg">
<path fill-rule="evenodd" clip-rule="evenodd" d="M5.04458 2.98108C5.3942 2.34479 6.18409 2 7.30951 2H33.4317C33.5569 2 33.6779 2.00426 33.7946 2.01272C33.7563 2.08236 33.7179 2.15436 33.6795 2.22878C32.9224 3.69535 32.1678 6.09032 31.9517 9.94403C31.8237 12.2277 31.6275 16.358 31.4165 21H33.4186C33.6278 16.3989 33.8219 12.3158 33.9486 10.056C34.153 6.40968 34.8586 4.30465 35.4566 3.14622C35.5111 3.04065 35.5648 2.94283 35.6172 2.85231C35.6458 2.8938 35.6723 2.93673 35.6967 2.98108C36.3116 4.1002 37.0781 6.22912 37.2926 10.056C37.4195 12.3191 37.6591 16.4016 37.9318 21H39.9353C39.6598 16.3553 39.4174 12.2244 39.2895 9.94403C39.0628 5.89984 38.2429 3.4619 37.4495 2.01797C36.9803 1.16412 36.2621 0.645001 35.4787 0.34754C35.3554 0.142916 35.3549 0.143257 35.3543 0.143598L35.3524 0.144728L35.3485 0.147107L35.34 0.152347L35.3204 0.164798C35.3062 0.173994 35.2897 0.184995 35.2711 0.197943C35.2495 0.21297 35.2251 0.230604 35.1981 0.251059C34.6082 0.0683566 33.9944 0 33.4317 0H7.30951C5.89751 0 4.16404 0.430431 3.29175 2.01797C2.49837 3.46191 1.67845 5.89985 1.45174 9.94403C1.11784 15.9 0.319589 34.433 0.00370965 41.8433C-0.0934372 44.1223 1.72998 46 3.99973 46H37.1842C39.4831 46 41.3166 44.075 41.1779 41.7704C41.1631 41.5252 41.1477 41.2682 41.1315 41H39.1279C39.1467 41.3117 39.1646 41.609 39.1815 41.8906C39.2504 43.0356 38.3411 44 37.1842 44H32.4138L32.4203 43.8461C32.4498 43.1512 32.4911 42.1795 32.5415 41H30.5397C30.4909 42.1413 30.4509 43.0831 30.4221 43.7613L30.412 44H3.99973C2.85664 44 1.95369 43.0593 2.0019 41.9285C2.31813 34.5098 3.11566 15.9948 3.4486 10.056C3.66314 6.22912 4.42967 4.1002 5.04458 2.98108ZM8.37062 5C7.81834 5 7.37062 5.44772 7.37062 6C7.37062 6.55228 7.81834 7 8.37062 7H28.3706C28.9229 7 29.3706 6.55228 29.3706 6C29.3706 5.44772 28.9229 5 28.3706 5H8.37062Z" fill="white"/>
<rect x="17.3707" y="24" width="27" height="16" rx="2" stroke="white" stroke-width="2"/>
<path d="M29.3707 36.5C29.3707 36.7761 29.5945 37 29.8707 37H30.6862C30.9623 37 31.1862 36.7761 31.1862 36.5V34.2857C31.1862 34.0096 31.41 33.7857 31.6862 33.7857H33.2378C35.5109 33.7857 37.3707 32.6143 37.3707 30.3714C37.3707 28.3286 35.8504 27 33.4445 27H29.8707C29.5945 27 29.3707 27.2239 29.3707 27.5V36.5ZM31.6862 32.2C31.41 32.2 31.1862 31.9761 31.1862 31.7V29.1C31.1862 28.8239 31.41 28.6 31.6862 28.6H33.2969C34.6548 28.6 35.5256 29.2143 35.5256 30.3857C35.5256 31.4571 34.6696 32.2 33.2969 32.2H31.6862Z" fill="white" stroke="white" stroke-width="0.5"/>
<line x1="30.3707" y1="33" x2="27.3707" y2="33" stroke="white" stroke-width="2" stroke-linecap="round" stroke-linejoin="round"/>
</svg>
