<svg width="63" height="47" viewBox="0 0 63 47" fill="none" xmlns="http://www.w3.org/2000/svg">
<path d="M55.5064 20.7904C53.3656 19.7202 49.3518 19.7078 49.182 19.7078C48.673 19.7078 48.2604 20.1204 48.2604 20.6293C48.2604 21.1383 48.673 21.5509 49.182 21.5509C50.2177 21.5511 53.2249 21.7105 54.6821 22.4391C54.8144 22.5053 54.955 22.5365 55.0935 22.5365C55.4315 22.5365 55.757 22.3498 55.9185 22.027C56.1462 21.5717 55.9616 21.0181 55.5064 20.7904Z" fill="white"/>
<path d="M60.101 33.9112L56.2949 32.8237C56.1306 32.7768 56.0158 32.6247 56.0158 32.4538V31.1833C56.3255 30.9688 56.6209 30.7287 56.897 30.4607C58.2351 29.1621 58.972 27.4203 58.972 25.556V23.8029L59.34 23.067C59.7439 22.2591 59.9574 21.3546 59.9574 20.4514V15.7022C59.9574 15.1932 59.5448 14.7806 59.0358 14.7806H50.1673C46.9425 14.7806 44.3188 17.4043 44.3188 20.6291V20.684C44.3188 21.4351 44.4964 22.1872 44.8322 22.8588L45.3042 23.8028V25.308C45.3042 27.6936 46.4798 29.834 48.2604 31.122L48.2606 32.4535C48.2606 32.6588 48.2606 32.7439 47.4997 32.9614L45.6425 33.4919L40.2701 31.5384C40.2894 31.2849 40.2039 31.0271 40.019 30.8329L38.3022 29.0293V26.0016C38.4837 25.852 38.6626 25.6984 38.836 25.536C41.0018 23.506 42.2438 20.64 42.2438 17.6729V15.2549C42.8978 13.8319 43.2292 12.326 43.2292 10.7752V0.921584C43.2292 0.412624 42.8165 0 42.3076 0H28.5122C23.6573 0 19.7076 3.94978 19.7076 8.80456V10.7754C19.7076 12.3262 20.039 13.8321 20.693 15.2552V17.3356C20.693 20.7806 22.2248 23.8843 24.6345 25.9304V29.0294L22.9178 30.833C22.7329 31.0273 22.6474 31.2851 22.6667 31.5386L16.9965 33.6003C16.5856 33.7497 16.2038 33.9521 15.8571 34.1973L14.9668 33.7521C17.6172 32.5984 18.4569 30.9758 18.4972 30.8952C18.6269 30.6358 18.6269 30.3303 18.4972 30.0709C17.8328 28.7421 17.7523 26.3065 17.6877 24.3496C17.6661 23.6981 17.6457 23.0826 17.6068 22.5346C17.2926 18.1142 13.9321 14.7806 9.78992 14.7806C5.64771 14.7806 2.28712 18.114 1.97305 22.5346C1.9341 23.0827 1.9137 23.6982 1.8922 24.3498C1.82756 26.3067 1.74695 28.742 1.08268 30.0708C0.952918 30.3302 0.952918 30.6357 1.08268 30.895C1.12298 30.9757 1.96088 32.5949 4.61664 33.75L2.14348 34.9865C0.821315 35.6481 0 36.977 0 38.4551V45.2636C0 45.7726 0.412624 46.1852 0.921584 46.1852C1.43054 46.1852 1.84317 45.7726 1.84317 45.2636V38.4551C1.84317 37.6795 2.2741 36.9822 2.96775 36.6353L6.04743 35.0955L7.11868 36.1135C7.86774 36.8254 8.82865 37.1811 9.78992 37.1811C10.7509 37.1811 11.7123 36.8251 12.4612 36.1135L13.5323 35.0956L14.5364 35.5977C14.0636 36.3543 13.7952 37.2414 13.7952 38.1708V45.2639C13.7952 45.7729 14.2079 46.1855 14.7168 46.1855C15.2258 46.1855 15.6384 45.7729 15.6384 45.2639V38.1708C15.6384 36.9056 16.4372 35.7651 17.6263 35.3327L23.6046 33.1588L26.0932 36.892C26.4114 37.3692 26.9212 37.6753 27.4919 37.7318C27.5556 37.7381 27.6189 37.7412 27.682 37.7412C28.1856 37.7412 28.6679 37.543 29.0284 37.1826L30.5467 35.6643V45.264C30.5467 45.773 30.9593 46.1856 31.4683 46.1856C31.9772 46.1856 32.3899 45.773 32.3899 45.264V35.6643L33.9081 37.1826C34.2685 37.5431 34.7508 37.7413 35.2545 37.7413C35.3175 37.7413 35.381 37.7382 35.4445 37.732C36.0154 37.6754 36.5252 37.3694 36.8433 36.8921L39.3321 33.1591L45.3102 35.3329C46.4992 35.7653 47.2981 36.9059 47.2981 38.171V45.2641C47.2981 45.7731 47.7108 46.1857 48.2197 46.1857C48.7287 46.1857 49.1413 45.7731 49.1413 45.2641V38.171C49.1413 36.8896 48.6322 35.6879 47.7782 34.7991L48.0059 34.7341C48.2356 34.6685 48.5489 34.5787 48.8635 34.4245L51.2165 36.7775V45.2641C51.2165 45.7731 51.6291 46.1857 52.138 46.1857C52.647 46.1857 53.0596 45.7731 53.0596 45.2641V36.7775L55.3963 34.4408C55.5205 34.504 55.651 34.5573 55.7884 34.5965L59.5946 35.684C60.4634 35.9322 61.0703 36.7367 61.0703 37.6403V45.2641C61.0703 45.7731 61.4829 46.1857 61.9919 46.1857C62.5008 46.1857 62.9134 45.7731 62.9134 45.2641V37.6403C62.9134 35.9178 61.7569 34.3844 60.101 33.9112ZM5.91227 32.2834C4.18841 31.6632 3.32372 30.8362 2.9546 30.3846C3.20625 29.7267 3.36943 28.9732 3.4799 28.1778C3.98812 29.3964 4.8393 30.4367 5.91227 31.1789V32.2834ZM11.1917 34.7776C10.4057 35.5245 9.1743 35.5243 8.3885 34.7775L7.53143 33.9631C7.67605 33.6921 7.75556 33.3849 7.75556 33.0631V32.0808C8.39845 32.2817 9.0819 32.3901 9.79017 32.3901C10.4976 32.3901 11.1807 32.2812 11.8247 32.0814L11.8245 33.063C11.8245 33.3849 11.9039 33.6922 12.0487 33.9633L11.1917 34.7776ZM9.79041 30.5469C7.03844 30.5469 4.79973 28.3081 4.79973 25.5563C4.79973 25.0473 4.38711 24.6347 3.87815 24.6347C3.82654 24.6347 3.77616 24.64 3.72688 24.6482C3.72959 24.5689 3.73217 24.4895 3.73487 24.411C3.75539 23.7773 3.77518 23.1788 3.81167 22.6654C3.92939 21.0095 4.59108 19.4836 5.67487 18.3686C6.76836 17.2436 8.22987 16.624 9.79017 16.624C11.3505 16.624 12.8119 17.2436 13.9055 18.3686C14.9893 19.4836 15.6509 21.0095 15.7687 22.6654C15.805 23.1787 15.8249 23.7771 15.8458 24.4107C15.8477 24.4651 15.8495 24.5203 15.8514 24.5751C14.8487 23.0303 13.3002 21.8918 11.2994 21.2489C9.4509 20.655 7.86111 20.6918 7.79402 20.6935C7.55269 20.7002 7.32364 20.8013 7.15616 20.975L5.49338 22.6995C5.1401 23.0659 5.15067 23.6493 5.51709 24.0026C5.88351 24.3559 6.46694 24.3452 6.82021 23.9789L8.20382 22.544C9.39536 22.6023 13.2288 23.0481 14.7197 26.331C14.3445 28.7502 12.2652 30.5469 9.79041 30.5469ZM13.6676 32.2865L13.6677 31.1874C14.7398 30.4492 15.5922 29.4109 16.1008 28.1831C16.2113 28.9767 16.3743 29.7284 16.6255 30.3849C16.2585 30.8321 15.3897 31.6665 13.6676 32.2865ZM22.5362 17.3355V15.049C22.5362 14.9102 22.5048 14.7732 22.4445 14.6483C21.8515 13.4202 21.5508 12.1172 21.5508 10.7754V8.80469C21.5508 4.96611 24.6737 1.84329 28.5122 1.84329H41.386V10.7755C41.386 12.1174 41.0853 13.4203 40.4923 14.6484C40.432 14.7734 40.4006 14.9104 40.4006 15.0491V17.6731C40.4006 20.1689 39.3973 22.4838 37.5755 24.1914C37.3481 24.4045 37.1121 24.6043 36.868 24.7905C36.8626 24.7942 36.8574 24.7982 36.8522 24.802C35.1455 26.0978 33.0551 26.7275 30.8721 26.5861C26.1977 26.2834 22.5362 22.2201 22.5362 17.3355ZM27.7252 35.8791C27.7188 35.8855 27.7039 35.9006 27.6738 35.8974C27.6438 35.8945 27.632 35.8769 27.627 35.8693L24.7609 31.57L25.6832 30.6009L30.0312 33.5729L27.7252 35.8791ZM31.4684 32.3226L26.4777 28.9113V27.191C27.769 27.8891 29.2149 28.3257 30.7528 28.4252C30.9957 28.4409 31.2371 28.4487 31.4779 28.4487C33.2401 28.4487 34.936 28.0274 36.4591 27.2279V28.9113L31.4684 32.3226ZM35.3098 35.8695C35.3048 35.8771 35.293 35.8947 35.263 35.8977C35.2329 35.9015 35.2181 35.8856 35.2116 35.8793L32.9056 33.5733L37.2536 30.6011L38.1761 31.5703L35.3098 35.8695ZM52.138 35.0919L50.0467 33.0007C50.0832 32.8349 50.1038 32.6534 50.1037 32.4533L50.1036 32.0644C50.6839 32.2548 51.2956 32.3679 51.9285 32.3868C51.9996 32.389 52.07 32.39 52.1407 32.39C52.8402 32.39 53.5229 32.2843 54.1727 32.0827V32.4538C54.1727 32.6376 54.1958 32.8177 54.2393 32.9909L52.138 35.0919ZM55.6134 29.138C54.6366 30.0859 53.3463 30.5865 51.984 30.5445C49.317 30.4645 47.1474 28.1154 47.1474 25.3083V23.5854C47.1474 23.4423 47.1141 23.3012 47.05 23.1733L46.4808 22.0347C46.2722 21.6175 46.162 21.1506 46.162 20.6841V20.6292C46.162 18.4206 47.9588 16.6239 50.1673 16.6239H58.1142V20.4515C58.1142 21.0701 57.968 21.6895 57.6914 22.2429L57.2262 23.1733C57.1622 23.3013 57.1289 23.4423 57.1289 23.5854V25.5561C57.1289 26.9176 56.5906 28.1896 55.6134 29.138Z" fill="white"/>
<path d="M58.0503 38.4299C57.5413 38.4299 57.1287 38.8426 57.1287 39.3515V45.2638C57.1287 45.7727 57.5413 46.1854 58.0503 46.1854C58.5593 46.1854 58.9719 45.7727 58.9719 45.2638V39.3515C58.9719 38.8427 58.5593 38.4299 58.0503 38.4299Z" fill="white"/>
<path d="M4.86311 39.6479C4.35415 39.6479 3.94153 40.0606 3.94153 40.5695V45.2636C3.94153 45.7725 4.35415 46.1852 4.86311 46.1852C5.37207 46.1852 5.7847 45.7725 5.7847 45.2636V40.5695C5.7847 40.0607 5.37207 39.6479 4.86311 39.6479Z" fill="white"/>
<path d="M39.0177 11.1091C35.5321 7.62355 28.2395 8.28991 25.2656 8.73817C24.3289 8.87936 23.6491 9.67204 23.6491 10.623V12.7461C23.6491 13.255 24.0617 13.6677 24.5707 13.6677C25.0797 13.6677 25.4923 13.255 25.4923 12.7461V10.6229C25.4923 10.5915 25.5129 10.5648 25.5404 10.5606C26.7283 10.3815 29.0855 10.1053 31.5277 10.2681C34.4015 10.4594 36.4831 11.1809 37.7144 12.4123C38.0743 12.7723 38.6579 12.7723 39.0177 12.4123C39.3776 12.0524 39.3776 11.4689 39.0177 11.1091Z" fill="white"/>
<path d="M20.6293 40.4006C20.1203 40.4006 19.7077 40.8133 19.7077 41.3222V45.2638C19.7077 45.7727 20.1203 46.1854 20.6293 46.1854C21.1382 46.1854 21.5509 45.7727 21.5509 45.2638V41.3222C21.5509 40.8134 21.1382 40.4006 20.6293 40.4006Z" fill="white"/>
<path d="M42.3076 40.4006C41.7986 40.4006 41.386 40.8133 41.386 41.3222V45.2638C41.386 45.7727 41.7986 46.1854 42.3076 46.1854C42.8165 46.1854 43.2292 45.7727 43.2292 45.2638V41.3222C43.2292 40.8134 42.8165 40.4006 42.3076 40.4006Z" fill="white"/>
</svg>
