<svg width="133" height="126" viewBox="0 0 133 126" fill="none" xmlns="http://www.w3.org/2000/svg">
<path d="M125.341 60.412C125.349 68.8084 123.536 77.1138 120.02 84.7957C116.503 92.4777 111.361 99.3668 104.921 105.022C103.13 106.596 101.247 108.071 99.2811 109.438C96.7581 111.192 94.1021 112.762 91.3355 114.134H91.3065C90.7169 114.432 90.1176 114.716 89.5134 114.991C89.238 115.121 88.9673 115.242 88.687 115.363C86.9374 116.137 85.1427 116.831 83.3029 117.446C81.853 117.912 80.3644 118.377 78.8613 118.759C70.1911 120.982 61.128 121.394 52.2794 119.966C51.2306 119.798 50.1964 119.607 49.1669 119.388L48.297 119.197C45.6709 118.606 43.0877 117.85 40.564 116.933C39.098 116.402 37.661 115.82 36.2529 115.186C35.7068 114.939 35.1606 114.688 34.6242 114.427C34.2569 114.25 33.8944 114.068 33.5319 113.887C23.698 108.909 15.4133 101.501 9.52625 92.4223C3.6392 83.3434 0.361296 72.9195 0.0281932 62.2181C-0.30491 51.5166 2.31876 40.922 7.63054 31.5193C12.9423 22.1166 20.7513 14.2435 30.258 8.70635C39.7646 3.16917 50.6272 0.166825 61.7335 0.0067536C72.8398 -0.153317 83.7907 2.53464 93.4649 7.79538C103.139 13.0561 111.189 20.7006 116.79 29.946C122.391 39.1915 125.342 49.7057 125.341 60.412Z" fill="url(#paint0_linear_2_4)"/>
<path d="M79 65C82.9921 68.9597 94.6205 84.37 94.6205 84.37L87.4772 94.4649L81.0541 74.4101L79 65Z" fill="url(#paint1_linear_2_4)"/>
<path d="M90.8761 113.928C90.2865 114.226 89.6872 114.51 89.083 114.785C88.8075 114.916 88.5369 115.037 88.2566 115.158C86.507 115.931 84.7123 116.625 82.8725 117.24C81.4226 117.706 79.934 118.172 78.4309 118.554C69.7607 120.777 60.6976 121.188 51.849 119.761C50.8002 119.593 49.7659 119.402 48.7365 119.183C44.9667 121.689 41.4869 123.809 39.1815 124.773L39.37 123.222L40.1529 116.733L41.9654 101.634L49.1473 94.9402L33 96.1467C33 96.1467 34.6964 73.4599 41.3177 68.7921C47.939 64.1243 54.8842 59.941 54.8842 59.941C55.7128 60.4677 56.6255 60.8595 57.5859 61.101C59.8824 61.7129 62.2695 61.9475 64.647 61.7951C67.4792 61.6693 70.3114 59.1304 70.4467 59C70.4467 59 74.8931 59.8525 78.6629 64.5622C80.5431 66.9867 81.893 69.7538 82.6309 72.6959C83.5588 76.1386 85.2069 84.1791 87.0821 93.892C88.3097 100.144 89.6002 107.076 90.8761 113.928Z" fill="url(#paint2_linear_2_4)"/>
<path d="M95.1336 84.2008L102.026 91.9851L126.263 68.7952L127.182 64.0482L132.015 60L129.864 66.1725V74.213C129.864 74.213 111.17 103.422 106.018 104.926C99.9909 106.692 88 94.2678 88 94.2678L95.1336 84.2008Z" fill="url(#paint3_linear_2_4)"/>
<path d="M70 94.7299L75.6209 107.774L82.885 104.764L77.5589 92L70 94.7299Z" fill="#7E57C2"/>
<path d="M76.988 103.013C76.0842 103.73 74.7358 103.562 73.0635 103.646C70.8169 103.703 68.662 104.517 66.9739 105.947C64.7265 107.769 58.4435 112.534 52.1605 116.885C51.0199 117.673 49.8793 118.451 48.7773 119.215C45.0075 121.721 41.5277 123.841 39.2223 124.805C38.6162 125.095 37.9618 125.279 37.2891 125.35C34.0606 125.429 33.3695 118.907 33.1713 113.704C33.1085 111.975 33.094 110.396 33.0601 109.255C32.9248 104.69 33.0601 96.2112 33.0601 96.2112L49.2075 95L47.4966 105.78L47.1969 107.685V107.699L52.03 105.975L52.1798 105.924L69.3372 99.7796L70.5213 97.8091L71.2753 99.6725H71.3478L78.6941 98.7408C78.6941 98.7408 78.8197 101.564 76.988 103.013Z" fill="url(#paint4_linear_2_4)"/>
<path d="M73.4145 35.028C72.994 33.9193 72.6315 33.1646 72.5252 32.941V32.8851C72.5252 32.8851 72.1531 33.7702 69.3499 33.5559C66.5467 33.3416 65.6187 32 65.6187 32C65.6187 32 66.4984 34.9069 63.1587 36.1507C59.9447 37.3526 58.6784 36.5746 58.5914 36.5187C58.7606 36.6958 61.2738 39.2859 59.6064 41.3402C57.881 43.4692 54 43.0499 54 43.0499V43.0779C54.4884 44.144 55.0353 45.1843 55.6384 46.1944C55.9574 46.7254 56.2716 47.2146 56.605 47.6711V47.7037C57.4609 49.0458 58.6167 50.1869 59.9882 51.0439C59.3854 54.4529 57.6543 57.5825 55.0536 59.9649C55.9285 60.4049 56.8308 60.7923 57.7553 61.1248C59.5581 61.7817 61.9794 62.4339 64.1398 62.2522C66.643 61.9942 68.9561 60.8446 70.6258 59.0285L69.519 54.9337L68.5234 51.2442C77.5226 49.0314 75.0481 39.407 73.4145 35.028ZM68.0208 51.3793L68.1803 51.342L68.4364 51.2721C68.0636 51.4276 67.6698 51.5311 67.2668 51.5796C67.4746 51.5284 67.6873 51.4724 67.9096 51.4072L68.0208 51.3793Z" fill="url(#paint5_linear_2_4)"/>
<path d="M79.5737 32.5994C75.8619 35.8883 74.2573 34.9613 74.1558 34.8727V34.8634C73.7353 33.7547 73.3728 33 73.2714 32.7764L73.2472 32.7205C73.2472 32.7205 72.8702 33.6056 70.067 33.3913C67.2638 33.1771 66.3407 31.8354 66.3407 31.8354C66.3407 31.8354 67.2203 34.7423 63.8807 35.9861C60.6618 37.188 59.3956 36.41 59.3134 36.3541C59.4826 36.5265 61.9958 39.1166 60.3284 41.171C58.603 43.2999 54.722 42.8853 54.722 42.8853V42.9086C55.2103 43.9763 55.7572 45.0182 56.3604 46.0298C56.6826 46.5578 57.0048 47.05 57.327 47.5066V47.5392C57.327 47.5392 56.0028 50.0501 53.6394 49.9988C51.276 49.9476 51.2228 47.6696 51.2228 47.6696C51.2228 47.6696 49.5506 50.5765 44.384 47.7767C39.2175 44.977 42.6635 40.9195 42.6635 40.9195C42.6635 40.9195 39 38.2175 39 34.1693C39 30.1211 44.703 27.0418 44.703 27.0418C44.703 27.0418 42.6635 22.3414 46.1046 19.7513C49.5458 17.1612 54.7172 18.9174 54.7172 18.9174C54.7172 18.9174 54.6157 12.9034 59.8837 13.0012C65.1518 13.099 66.3456 16.2062 66.3456 16.2062C66.3456 16.2062 71.082 12.6751 75.7701 16.0012C80.4581 19.3274 78.5297 25.1272 78.5297 25.1272C78.5297 25.1272 83.445 29.1754 79.5737 32.5994Z" fill="url(#paint6_linear_2_4)"/>
<path opacity="0.15" d="M70.2443 54.6662C67.997 53.9814 64 51.368 64 51.368C65.5774 51.5287 67.1712 51.4469 68.7219 51.1258L68.8814 51.0885L69.1907 51H69.2342L70.2443 54.6662Z" fill="black"/>
<path opacity="0.15" d="M51.8731 81L49.6934 94.9754L47.9825 105.755L44 108.946L52.6657 105.914C52.6657 105.914 50.4183 99.7271 51.8731 81Z" fill="black"/>
<path opacity="0.15" d="M49 119.306C50.0294 119.525 51.0637 119.716 52.1125 119.884C52.1657 118.929 52.2623 117.964 52.3977 117L49 119.306Z" fill="black"/>
<defs>
<linearGradient id="paint0_linear_2_4" x1="62.9277" y1="6.55942" x2="60.9363" y2="125.618" gradientUnits="userSpaceOnUse">
<stop stop-color="white" stop-opacity="0"/>
<stop offset="1" stop-color="#64B5F6" stop-opacity="0.6"/>
</linearGradient>
<linearGradient id="paint1_linear_2_4" x1="74.2684" y1="60.9984" x2="90.6044" y2="90.7798" gradientUnits="userSpaceOnUse">
<stop stop-color="#E57373"/>
<stop offset="1" stop-color="#AD1457"/>
</linearGradient>
<linearGradient id="paint2_linear_2_4" x1="26459.2" y1="36321.7" x2="24758.7" y2="45028.9" gradientUnits="userSpaceOnUse">
<stop stop-color="#E57373"/>
<stop offset="1" stop-color="#AD1457"/>
</linearGradient>
<linearGradient id="paint3_linear_2_4" x1="138.573" y1="71.5763" x2="92.6273" y2="99.1913" gradientUnits="userSpaceOnUse">
<stop stop-color="#FFF8E1"/>
<stop offset="1" stop-color="#FFCC80"/>
</linearGradient>
<linearGradient id="paint4_linear_2_4" x1="20346.2" y1="20343.7" x2="17878.1" y2="18617.2" gradientUnits="userSpaceOnUse">
<stop stop-color="#FFF8E1"/>
<stop offset="1" stop-color="#FFCC80"/>
</linearGradient>
<linearGradient id="paint5_linear_2_4" x1="78.1461" y1="39.772" x2="52.8982" y2="50.5593" gradientUnits="userSpaceOnUse">
<stop stop-color="#FFF8E1"/>
<stop offset="1" stop-color="#FFCC80"/>
</linearGradient>
<linearGradient id="paint6_linear_2_4" x1="73.0297" y1="12.8242" x2="44.5565" y2="52.7386" gradientUnits="userSpaceOnUse">
<stop stop-color="#FFB74D"/>
<stop offset="1" stop-color="#F4511E"/>
</linearGradient>
</defs>
</svg>
