<svg width="163" height="119" viewBox="0 0 163 119" fill="none" xmlns="http://www.w3.org/2000/svg">
<path d="M162.854 59.3565C162.848 70.2613 159.684 80.9541 153.709 90.263C147.735 99.572 139.18 107.138 128.982 112.132C128.523 112.36 128.061 112.58 127.595 112.791L127.499 112.836L127.167 112.987C126.893 113.115 126.623 113.234 126.344 113.353C124.601 114.113 122.813 114.795 120.981 115.399C119.941 115.744 118.89 116.063 117.828 116.356L116.557 116.69C102.416 120.27 87.4028 119.028 74.1251 113.18C73.5811 112.937 73.0371 112.69 72.5028 112.434L71.5399 111.976C62.0102 107.229 53.9263 100.23 48.0664 91.6522C47.4502 90.7582 46.8628 89.843 46.3044 88.9063C45.8069 88.0917 45.3255 87.2664 44.8602 86.4305C40.3373 78.0542 37.9853 68.7718 38.0001 59.3565C38.0001 58.246 38.0322 57.1415 38.0963 56.0432C38.9989 40.6134 46.1981 26.1271 58.1626 15.6653C70.1272 5.20345 85.9132 -0.408443 102.163 0.0231736C118.413 0.45479 133.845 6.89586 145.176 17.9765C156.508 29.0571 162.845 43.9029 162.839 59.3565H162.854Z" fill="url(#paint0_linear_1_1168)"/>
<path d="M87.6349 57.446C87.6349 57.446 73.6739 51.1535 72.4608 42.4949C71.2476 33.8364 72.0997 25.5622 79.0561 23.2466C79.0561 23.2466 83.4562 9.91094 99.0539 15.2699C114.652 20.6289 112.192 36.7195 120.717 38.6462C129.243 40.5728 145.163 32.4589 148.201 42.3576C151.239 52.2564 141.25 51.6523 134.611 60.0546C127.972 68.4568 138.226 72.8685 136.349 78.6531C134.471 84.4376 127.38 88.4145 127.38 88.4145L87.6349 57.446Z" fill="url(#paint1_linear_1_1168)"/>
<path d="M69 76.3835L72.9427 86.5752H73.3712L79.5381 60C75.6435 63.2447 69 76.3835 69 76.3835Z" fill="url(#paint2_linear_1_1168)"/>
<path d="M61.23 90.3958L58.7315 91.5902C55.6312 93.3567 51 92.8533 51 92.8533C53.5033 95.5305 67.599 98.5601 71.561 98.4823L72.2928 89H63.5119L61.23 90.3958Z" fill="url(#paint3_linear_1_1168)"/>
<path d="M127.055 113.054L126.959 113.1L126.627 113.251C126.353 113.379 126.083 113.498 125.804 113.617C124.061 114.376 122.273 115.058 120.441 115.662C119.401 116.007 118.35 116.326 117.288 116.619L116.017 116.953C101.876 120.533 86.8628 119.291 73.5852 113.443C73.0412 113.2 72.4972 112.953 71.9628 112.697L71 112.239C71.1348 108.313 71.3418 103.613 71.6451 98.6564C71.8377 95.5582 72.0735 92.3593 72.3528 89.1833C72.425 88.3549 72.502 87.5312 72.579 86.7074C73.7152 75.001 75.5349 64.1458 78.4522 60.6952L78.4956 60.6494C78.866 60.1648 79.3885 59.8043 79.9879 59.6197C84.2003 58.6678 87.1706 58.3475 87.6375 57.5237C88.1045 56.7 87.6375 55.0799 87.6375 55.0799L88.4752 54.9701C89.6932 54.7962 92.0569 54.4301 94.2954 53.8809C94.3095 53.8851 94.3247 53.8851 94.3388 53.8809C96.3174 53.3912 98.19 52.7597 99.1047 52L100.982 56.7457C100.982 56.7457 115.102 55.0479 120.614 60.1506C120.648 60.1744 120.679 60.202 120.706 60.2329C120.764 60.2829 120.818 60.3364 120.869 60.3931C121.197 60.7228 121.489 61.0831 121.741 61.4686C123.536 64.2144 124.807 75.2344 125.688 87.188C125.89 89.9338 126.073 92.7712 126.232 95.549C126.598 101.965 126.872 108.18 127.055 113.054Z" fill="url(#paint4_linear_1_1168)"/>
<path opacity="0.15" d="M126.756 112.564L126.424 112.715C126.149 112.843 125.88 112.962 125.6 113.081C123.858 113.841 122.07 114.523 120.237 115.127C119.198 115.472 118.147 115.791 117.084 116.083C110.58 109.498 108 100.949 108 100.949L126.019 95L126.756 112.564Z" fill="black"/>
<path d="M120.244 60C126.767 66.0866 128.188 78.8639 126.984 88.3737C125.781 97.8834 123.547 106.789 118.906 106.515C114.265 106.24 98.2054 95.6502 92 89.8748L95.625 83.2619L108.739 88.4561V74.6124L120.244 60Z" fill="url(#paint5_linear_1_1168)"/>
<path d="M120.244 60C126.767 66.0866 128.188 78.8639 126.984 88.3737C125.781 97.8834 123.547 106.789 118.906 106.515C114.265 106.24 98.2054 95.6502 92 89.8748L95.625 83.2619L108.739 88.4561V74.6124L120.244 60Z" fill="url(#paint6_linear_1_1168)"/>
<g filter="url(#filter0_d_1_1168)">
<path d="M87.1715 86H27V88.4758H87.1715V86Z" fill="url(#paint7_linear_1_1168)"/>
<path d="M60.7581 56H15L26.7657 86.3873H72.5189L60.7581 56Z" fill="url(#paint8_linear_1_1168)"/>
</g>
<path d="M41 89C41 89 48.8951 92.7572 53.9114 92.8487C58.9277 92.9403 64.4351 89 64.4351 89H41Z" fill="url(#paint9_linear_1_1168)"/>
<path d="M96.2026 82.7109C96.2026 82.7109 89.2607 79.3793 86.2711 79.0132C83.2816 78.6471 74 86.0242 74 86.0242H87.0944L92.5921 89.3238L96.2026 82.7109Z" fill="url(#paint10_linear_1_1168)"/>
<path d="M98.2984 44.5006C98.3328 47.0066 98.5258 49.5083 98.8761 51.9922C95.771 53.6534 92.1364 54.5458 88.2466 54.9806L88.0203 51.9922L87.8855 50.1616V50.1021C87.1357 50.0861 86.3965 49.9306 85.7095 49.6445C81.011 47.7178 80 38.2996 80 38.2996C81.8823 38.2264 84.3327 35 84.3327 35C85.7047 36.9953 92.069 40.8486 95.7614 39.8144C99.4538 38.7801 99.1649 36.3043 99.1649 36.3043C99.8328 36.572 100.41 37.0089 100.835 37.5674C101.259 38.1258 101.514 38.7844 101.572 39.4711C101.769 41.8875 98.2984 44.5006 98.2984 44.5006Z" fill="url(#paint11_linear_1_1168)"/>
<path opacity="0.15" d="M95.2549 47C94.3835 48.4004 90.4407 50.6291 88.1348 51.8418L88 50.0113C88.1444 50.0113 88.284 49.9655 88.4188 49.938C90.3014 49.6213 92.1084 48.9841 93.7528 48.0571C93.7725 48.0498 93.7905 48.0389 93.8058 48.0251C94.3 47.7474 94.7629 47.4223 95.1874 47.0549L95.2549 47Z" fill="black"/>
<path opacity="0.15" d="M104 85.6836L114.216 89.6559L109.401 86.3563V74C109.401 74 107.895 84.7362 104 85.6836Z" fill="black"/>
<defs>
<filter id="filter0_d_1_1168" x="0" y="41" width="112.171" height="72.4758" filterUnits="userSpaceOnUse" color-interpolation-filters="sRGB">
<feFlood flood-opacity="0" result="BackgroundImageFix"/>
<feColorMatrix in="SourceAlpha" type="matrix" values="0 0 0 0 0 0 0 0 0 0 0 0 0 0 0 0 0 0 127 0" result="hardAlpha"/>
<feOffset dx="5" dy="5"/>
<feGaussianBlur stdDeviation="10"/>
<feColorMatrix type="matrix" values="0 0 0 0 0 0 0 0 0 0 0 0 0 0 0 0 0 0 0.2 0"/>
<feBlend mode="normal" in2="BackgroundImageFix" result="effect1_dropShadow_1_1168"/>
<feBlend mode="normal" in="SourceGraphic" in2="effect1_dropShadow_1_1168" result="shape"/>
</filter>
<linearGradient id="paint0_linear_1_1168" x1="100.683" y1="6.44513" x2="98.753" y2="123.43" gradientUnits="userSpaceOnUse">
<stop stop-color="white" stop-opacity="0"/>
<stop offset="1" stop-color="#64B5F6" stop-opacity="0.6"/>
</linearGradient>
<linearGradient id="paint1_linear_1_1168" x1="72.0034" y1="51.2038" x2="148.769" y2="51.2038" gradientUnits="userSpaceOnUse">
<stop stop-color="#EF9A9A"/>
<stop offset="1" stop-color="#D81B60"/>
</linearGradient>
<linearGradient id="paint2_linear_1_1168" x1="73.6986" y1="74.3424" x2="71.6045" y2="99.3893" gradientUnits="userSpaceOnUse">
<stop stop-color="#7E57C2"/>
<stop offset="1" stop-color="#4527A0"/>
</linearGradient>
<linearGradient id="paint3_linear_1_1168" x1="6436.92" y1="2288.85" x2="6416.47" y2="2810.73" gradientUnits="userSpaceOnUse">
<stop stop-color="#7E57C2"/>
<stop offset="1" stop-color="#4527A0"/>
</linearGradient>
<linearGradient id="paint4_linear_1_1168" x1="19217.8" y1="13459.6" x2="22869.8" y2="20504.3" gradientUnits="userSpaceOnUse">
<stop stop-color="#7E57C2"/>
<stop offset="1" stop-color="#4527A0"/>
</linearGradient>
<linearGradient id="paint5_linear_1_1168" x1="13189.3" y1="8850.56" x2="16440.8" y2="14546.9" gradientUnits="userSpaceOnUse">
<stop stop-color="#7E57C2"/>
<stop offset="1" stop-color="#4527A0"/>
</linearGradient>
<linearGradient id="paint6_linear_1_1168" x1="112.595" y1="65.1622" x2="107.619" y2="107.848" gradientUnits="userSpaceOnUse">
<stop offset="0.14" stop-color="#7E57C2" stop-opacity="0"/>
<stop offset="0.26" stop-color="#724DBB" stop-opacity="0.21"/>
<stop offset="0.48" stop-color="#5F3DAF" stop-opacity="0.55"/>
<stop offset="0.66" stop-color="#5131A7" stop-opacity="0.79"/>
<stop offset="0.81" stop-color="#482AA2" stop-opacity="0.94"/>
<stop offset="0.91" stop-color="#4527A0"/>
</linearGradient>
<linearGradient id="paint7_linear_1_1168" x1="27" y1="87.2356" x2="87.1715" y2="87.2356" gradientUnits="userSpaceOnUse">
<stop stop-color="#D2D4D5"/>
<stop offset="1" stop-color="#AAACAE"/>
</linearGradient>
<linearGradient id="paint8_linear_1_1168" x1="509.088" y1="3802.75" x2="3752.65" y2="7682.09" gradientUnits="userSpaceOnUse">
<stop stop-color="#D2D4D5"/>
<stop offset="1" stop-color="#AAACAE"/>
</linearGradient>
<linearGradient id="paint9_linear_1_1168" x1="42.4924" y1="84.8675" x2="61.4164" y2="93.4012" gradientUnits="userSpaceOnUse">
<stop stop-color="#FFF8E1"/>
<stop offset="1" stop-color="#FFCC80"/>
</linearGradient>
<linearGradient id="paint10_linear_1_1168" x1="7440.84" y1="2663.67" x2="7908.1" y2="3197.98" gradientUnits="userSpaceOnUse">
<stop stop-color="#FFF8E1"/>
<stop offset="1" stop-color="#FFCC80"/>
</linearGradient>
<linearGradient id="paint11_linear_1_1168" x1="7600.45" y1="2922.99" x2="8002.72" y2="3717.36" gradientUnits="userSpaceOnUse">
<stop stop-color="#FFF8E1"/>
<stop offset="1" stop-color="#FFCC80"/>
</linearGradient>
</defs>
</svg>
