<svg width="182" height="121" viewBox="0 0 182 121" fill="none" xmlns="http://www.w3.org/2000/svg">
<path d="M181.714 60.36C181.708 71.4526 178.573 82.3296 172.652 91.7989C166.732 101.268 158.255 108.964 148.15 114.044C147.558 114.347 146.957 114.635 146.351 114.915C146.08 115.045 145.812 115.166 145.536 115.287C143.809 116.06 142.037 116.753 140.222 117.368C138.79 117.857 137.321 118.299 135.838 118.681C121.825 122.322 106.949 121.059 93.7919 115.11C93.2528 114.863 92.7138 114.612 92.1843 114.351C82.3336 109.543 73.9772 102.255 67.9785 93.24C61.9799 84.2253 58.5566 73.8111 58.0623 63.0734C57.568 52.3356 60.0207 41.6638 65.1669 32.1606C70.3131 22.6573 77.9661 14.6674 87.3353 9.01628C96.7046 3.36515 107.45 0.257831 118.462 0.0153643C129.473 -0.227103 140.351 2.40408 149.972 7.63706C159.593 12.87 167.608 20.515 173.188 29.782C178.768 39.0491 181.712 49.6021 181.714 60.3506V60.36Z" fill="url(#paint0_linear_1_1130)"/>
<path d="M95.8311 98.0242L89 87.6105C89 87.6105 107.924 66.2616 109.818 65C109.818 65 100.272 80.6276 95.8311 98.0242Z" fill="url(#paint1_linear_1_1130)"/>
<path d="M88.7015 87L75.8216 98.1726L52.1273 87L34 87.9683C34 87.9683 45.2914 91.6925 48.4684 91.5389L51.6503 91.3852C51.6503 91.3852 71.1085 109.694 75.583 111.091C80.0576 112.487 94.755 101.538 94.755 101.538L95.6089 97.4463L88.7015 87Z" fill="url(#paint2_linear_1_1130)"/>
<path d="M124.449 62.357C122.659 63.2027 120.734 63.7443 118.758 63.9584C116.473 64.2936 113 63.0553 113 63.0553C115.624 61.0396 115.013 56.2866 115.013 56.2866L115.07 56.2587C117.87 56.0492 120.213 54.499 121.849 53C121.257 57.0687 124.449 62.357 124.449 62.357Z" fill="url(#paint3_linear_1_1130)"/>
<path d="M124.213 46.8909V49.6841C123.467 50.7692 122.596 51.7673 121.617 52.6588C119.981 54.1624 117.639 55.7126 114.839 55.9174C113.567 56.0123 112.289 55.8294 111.099 55.3821C103.466 52.5889 108.833 37.8086 108.833 37.8086C111.256 31.794 122.228 34.7035 122.228 34.7035C123.697 36.412 123.979 41.1836 123.922 41.6492C123.677 42.3032 123.357 42.9279 122.967 43.5112C122.967 43.5112 125.052 41.5933 125.768 42.8688C126.483 44.1444 124.213 46.8909 124.213 46.8909Z" fill="url(#paint4_linear_1_1130)"/>
<path d="M124.881 49.5039V46.7108C124.881 46.7108 127.147 43.9875 126.431 42.7026C125.716 41.4178 123.631 43.3451 123.631 43.3451C124.021 42.7617 124.341 42.137 124.585 41.483C124.643 41.0174 124.404 36.5158 122.892 34.5373C122.892 34.5373 111.92 31.6278 109.497 37.6424C109.497 37.6424 106.358 36.865 103.653 33.2199C99.2309 27.2566 104.512 26.5257 109.745 27.6755C116.094 29.0721 122.458 24.4914 129.732 29.1466C137.007 33.8018 130.486 44.3832 124.881 49.5039Z" fill="#262F72"/>
<g filter="url(#filter0_d_1_1130)">
<path d="M74.6047 24H12.7096C11.2131 24 10 25.1838 10 26.6442V82.3394C10 83.7997 11.2131 84.9835 12.7096 84.9835H74.6047C76.1011 84.9835 77.3143 83.7997 77.3143 82.3394V26.6442C77.3143 25.1838 76.1011 24 74.6047 24Z" fill="white"/>
</g>
<path d="M20.3209 34.521C20.1491 34.7107 19.9283 34.8521 19.6816 34.9306C19.3873 35.0303 19.0773 35.0791 18.7657 35.0749C18.4424 35.0821 18.1229 35.005 17.8403 34.8515C17.5726 34.6997 17.3581 34.4725 17.2249 34.1997C17.0733 33.8854 16.9967 33.5416 17.0007 33.1942V32.9242C16.992 32.5708 17.062 32.2198 17.2058 31.8954C17.3295 31.6202 17.5357 31.3881 17.7974 31.2297C18.114 31.0624 18.4718 30.9839 18.8313 31.0028C19.1908 31.0217 19.538 31.1373 19.8343 31.3368C20.1188 31.5907 20.2901 31.9433 20.3113 32.319H19.4956C19.4771 32.1292 19.389 31.9524 19.2476 31.8209C19.0976 31.7088 18.9115 31.6526 18.7228 31.6626C18.5956 31.6557 18.4688 31.6807 18.3543 31.7353C18.2399 31.7899 18.1417 31.8723 18.0693 31.9745C17.9019 32.2564 17.8239 32.5804 17.8451 32.9056V33.157C17.8244 33.4845 17.9095 33.8101 18.0884 34.088C18.1709 34.1942 18.2788 34.279 18.4028 34.335C18.5267 34.391 18.6628 34.4165 18.7991 34.4092C19.0407 34.4298 19.2811 34.3599 19.4718 34.2137V33.5294H18.7085V32.9289H20.3113L20.3209 34.521Z" fill="#64B5F6"/>
<path d="M69.8269 31H25.9684C25.4336 31 25 31.4231 25 31.945V35.3806C25 35.9025 25.4336 36.3256 25.9684 36.3256H69.8269C70.3617 36.3256 70.7953 35.9025 70.7953 35.3806V31.945C70.7953 31.4231 70.3617 31 69.8269 31Z" fill="#E7EEF2"/>
<path d="M70.7953 40H25V40.931H70.7953V40Z" fill="#BBDEFB"/>
<path d="M70.7953 42H25V42.9311H70.7953V42Z" fill="#E7E8E9"/>
<path d="M70.7953 44H25V44.9311H70.7953V44Z" fill="#E7E8E9"/>
<path d="M70.7953 46H25V46.931H70.7953V46Z" fill="#E7E8E9"/>
<path d="M70.7953 50H25V50.931H70.7953V50Z" fill="#BBDEFB"/>
<path d="M70.7953 52H25V52.931H70.7953V52Z" fill="#E7E8E9"/>
<path d="M70.7953 54H25V54.931H70.7953V54Z" fill="#E7E8E9"/>
<path d="M70.7953 56H25V56.931H70.7953V56Z" fill="#E7E8E9"/>
<path d="M70.7953 60H25V60.9311H70.7953V60Z" fill="#BBDEFB"/>
<path d="M70.7953 62H25V62.9311H70.7953V62Z" fill="#E7E8E9"/>
<path d="M70.7953 64H25V64.9311H70.7953V64Z" fill="#E7E8E9"/>
<path d="M70.7953 66H25V66.9311H70.7953V66Z" fill="#E7E8E9"/>
<path d="M70.7953 70H25V70.931H70.7953V70Z" fill="#BBDEFB"/>
<path d="M70.7953 72H25V72.9311H70.7953V72Z" fill="#E7E8E9"/>
<path d="M70.7953 74H25V74.931H70.7953V74Z" fill="#E7E8E9"/>
<path d="M70.7953 76H25V76.9311H70.7953V76Z" fill="#E7E8E9"/>
<path d="M140.634 84.522C143.897 94.0001 146.315 104.972 147.966 114.008C147.374 114.311 146.773 114.599 146.167 114.879C145.895 115.009 145.628 115.13 145.351 115.251C143.625 116.024 141.853 116.718 140.037 117.332C138.606 117.821 137.137 118.263 135.653 118.645C121.641 122.286 106.765 121.023 93.6076 115.074C93.0686 114.828 92.5295 114.576 92 114.316C92.9541 109.535 94.0894 103.916 95.4203 97.5893C95.9037 95.2958 96.411 92.9092 96.9421 90.4295C99.6755 77.7254 103.597 70.8077 106.836 67.0602L106.869 67.023C107.484 66.3106 108.151 65.6416 108.863 65.0212C108.883 64.9987 108.905 64.9784 108.93 64.9607C109.092 64.8211 109.254 64.6907 109.407 64.565C111.358 63.0148 112.684 62.7309 112.684 62.7309L112.803 62.7728H112.87C113.906 63.1715 114.992 63.433 116.1 63.5502H116.286H116.314C117.022 63.6163 117.733 63.6272 118.442 63.5828H118.485C120.454 63.4603 122.372 62.9202 124.104 62C126.136 62.6559 128.05 63.6188 129.776 64.8537C134.709 68.387 144.645 81.3425 144.645 81.3425L140.634 84.522Z" fill="url(#paint5_linear_1_1130)"/>
<path d="M159.089 101.86C159.06 103.154 157.853 105.78 156.088 108.964C153.598 110.717 150.977 112.286 148.246 113.656C147.654 113.959 147.053 114.248 146.448 114.527C146.176 114.657 145.909 114.778 145.632 114.899C143.905 115.672 142.134 116.366 140.318 116.98L144.926 102.647L133 90.4268L140.914 84.1702L144.926 81C144.926 81 159.213 96.8557 159.089 101.86Z" fill="url(#paint6_linear_1_1130)"/>
<defs>
<filter id="filter0_d_1_1130" x="0" y="18" width="87.3142" height="80.9835" filterUnits="userSpaceOnUse" color-interpolation-filters="sRGB">
<feFlood flood-opacity="0" result="BackgroundImageFix"/>
<feColorMatrix in="SourceAlpha" type="matrix" values="0 0 0 0 0 0 0 0 0 0 0 0 0 0 0 0 0 0 127 0" result="hardAlpha"/>
<feOffset dy="4"/>
<feGaussianBlur stdDeviation="5"/>
<feColorMatrix type="matrix" values="0 0 0 0 0 0 0 0 0 0 0 0 0 0 0 0 0 0 0.15 0"/>
<feBlend mode="normal" in2="BackgroundImageFix" result="effect1_dropShadow_1_1130"/>
<feBlend mode="normal" in="SourceGraphic" in2="effect1_dropShadow_1_1130" result="shape"/>
</filter>
<linearGradient id="paint0_linear_1_1130" x1="120.111" y1="6.55512" x2="118.096" y2="125.535" gradientUnits="userSpaceOnUse">
<stop stop-color="white" stop-opacity="0"/>
<stop offset="1" stop-color="#64B5F6" stop-opacity="0.6"/>
</linearGradient>
<linearGradient id="paint1_linear_1_1130" x1="100.912" y1="62.7841" x2="97.5025" y2="95.0394" gradientUnits="userSpaceOnUse">
<stop stop-color="#42A5F5"/>
<stop offset="1" stop-color="#1565C0"/>
</linearGradient>
<linearGradient id="paint2_linear_1_1130" x1="59.3305" y1="96.1149" x2="98.8901" y2="101.487" gradientUnits="userSpaceOnUse">
<stop stop-color="#FFE082"/>
<stop offset="1" stop-color="#FFA726"/>
</linearGradient>
<linearGradient id="paint3_linear_1_1130" x1="8897.78" y1="2327.36" x2="8900.43" y2="2118.05" gradientUnits="userSpaceOnUse">
<stop stop-color="#FFE082"/>
<stop offset="1" stop-color="#FFA726"/>
</linearGradient>
<linearGradient id="paint4_linear_1_1130" x1="14159.3" y1="3727.46" x2="14908.6" y2="3727.46" gradientUnits="userSpaceOnUse">
<stop stop-color="#FFE082"/>
<stop offset="1" stop-color="#FFA726"/>
</linearGradient>
<linearGradient id="paint5_linear_1_1130" x1="40575.3" y1="13812.8" x2="45974.4" y2="19173.5" gradientUnits="userSpaceOnUse">
<stop stop-color="#42A5F5"/>
<stop offset="1" stop-color="#1565C0"/>
</linearGradient>
<linearGradient id="paint6_linear_1_1130" x1="21738.7" y1="11217.3" x2="21381" y2="8910.27" gradientUnits="userSpaceOnUse">
<stop stop-color="#FFE082"/>
<stop offset="1" stop-color="#FFA726"/>
</linearGradient>
</defs>
</svg>
